<svg width="25" height="25" viewBox="0 0 25 25" fill="none" xmlns="http://www.w3.org/2000/svg">
    <path d="M12.5 8.5V12.5M12.5 16.5H12.51M2.5 9.02274V15.9773C2.5 16.2218 2.5 16.3441 2.52763 16.4592C2.55213 16.5613 2.59253 16.6588 2.64736 16.7483C2.7092 16.8492 2.79568 16.9357 2.96863 17.1086L7.89137 22.0314C8.06432 22.2043 8.1508 22.2908 8.25172 22.3526C8.34119 22.4075 8.43873 22.4479 8.54077 22.4724C8.65586 22.5 8.77815 22.5 9.02274 22.5H15.9773C16.2218 22.5 16.3441 22.5 16.4592 22.4724C16.5613 22.4479 16.6588 22.4075 16.7483 22.3526C16.8492 22.2908 16.9357 22.2043 17.1086 22.0314L22.0314 17.1086C22.2043 16.9357 22.2908 16.8492 22.3526 16.7483C22.4075 16.6588 22.4479 16.5613 22.4724 16.4592C22.5 16.3441 22.5 16.2218 22.5 15.9773V9.02274C22.5 8.77815 22.5 8.65586 22.4724 8.54077C22.4479 8.43873 22.4075 8.34119 22.3526 8.25172C22.2908 8.1508 22.2043 8.06432 22.0314 7.89137L17.1086 2.96863C16.9357 2.79568 16.8492 2.7092 16.7483 2.64736C16.6588 2.59253 16.5613 2.55213 16.4592 2.52763C16.3441 2.5 16.2218 2.5 15.9773 2.5H9.02274C8.77815 2.5 8.65586 2.5 8.54077 2.52763C8.43873 2.55213 8.34119 2.59253 8.25172 2.64736C8.1508 2.7092 8.06432 2.79568 7.89137 2.96863L2.96863 7.89137C2.79568 8.06432 2.7092 8.1508 2.64736 8.25172C2.59253 8.34119 2.55213 8.43873 2.52763 8.54077C2.5 8.65586 2.5 8.77815 2.5 9.02274Z" stroke="currentColor" stroke-width="2" stroke-linecap="round" stroke-linejoin="round"/>
</svg>
