<svg width="16" height="16" viewBox="0 0 16 16" fill="none" xmlns="http://www.w3.org/2000/svg">
<g clip-path="url(#clip0_4658_68)">
<path d="M11.3333 1.33334V8.66668M14.6667 6.53334V3.46668C14.6667 2.71994 14.6667 2.34657 14.5213 2.06136C14.3935 1.81047 14.1895 1.6065 13.9387 1.47867C13.6534 1.33334 13.2801 1.33334 12.5333 1.33334H5.41201C4.43769 1.33334 3.95052 1.33334 3.55705 1.51163C3.21027 1.66877 2.91553 1.92162 2.70749 2.24049C2.47145 2.60227 2.39737 3.08377 2.24922 4.04676L1.9005 6.31343C1.7051 7.58355 1.60739 8.21861 1.79587 8.71276C1.96129 9.14647 2.27243 9.50914 2.67595 9.73859C3.13569 10 3.77822 10 5.06329 10H5.6C5.97337 10 6.16005 10 6.30266 10.0727C6.4281 10.1366 6.53009 10.2386 6.594 10.364C6.66667 10.5066 6.66667 10.6933 6.66667 11.0667V13.0228C6.66667 13.9307 7.40266 14.6667 8.31056 14.6667C8.52711 14.6667 8.72335 14.5391 8.8113 14.3413L11.0518 9.30013C11.1537 9.07084 11.2047 8.9562 11.2852 8.87214C11.3564 8.79783 11.4438 8.74101 11.5406 8.70613C11.6502 8.66668 11.7756 8.66668 12.0265 8.66668H12.5333C13.2801 8.66668 13.6534 8.66668 13.9387 8.52135C14.1895 8.39352 14.3935 8.18955 14.5213 7.93866C14.6667 7.65345 14.6667 7.28008 14.6667 6.53334Z" stroke="#F44336" stroke-width="2" stroke-linecap="round" stroke-linejoin="round"/>
</g>
<defs>
<clipPath id="clip0_4658_68">
<rect width="16" height="16" fill="white"/>
</clipPath>
</defs>
</svg>
