<svg width="16" height="16" viewBox="0 0 16 16" fill="none" xmlns="http://www.w3.org/2000/svg">
<g clip-path="url(#clip0_4658_64)">
<path d="M4.66667 14.6667V7.33334M1.33333 8.66668V13.3333C1.33333 14.0697 1.93029 14.6667 2.66667 14.6667H11.6175C12.6046 14.6667 13.4441 13.9465 13.5942 12.9708L14.3122 8.30413C14.4986 7.09261 13.5612 6.00001 12.3354 6.00001H10C9.63181 6.00001 9.33333 5.70153 9.33333 5.33334V2.97724C9.33333 2.06934 8.59734 1.33334 7.68944 1.33334C7.47289 1.33334 7.27665 1.46087 7.1887 1.65876L4.84263 6.93744C4.73562 7.17819 4.49688 7.33334 4.23342 7.33334H2.66667C1.93029 7.33334 1.33333 7.9303 1.33333 8.66668Z" stroke="#60B04D" stroke-width="2" stroke-linecap="round" stroke-linejoin="round"/>
</g>
<defs>
<clipPath id="clip0_4658_64">
<rect width="16" height="16" fill="white"/>
</clipPath>
</defs>
</svg>
