<svg width="80" height="80" viewBox="0 0 80 80" fill="none" xmlns="http://www.w3.org/2000/svg">
<path d="M68.3332 24.2592L39.9999 39.9999M39.9999 39.9999L11.6666 24.2592M39.9999 39.9999L40 71.6667M70 53.5285V26.4715C70 25.3294 70 24.7583 69.8317 24.249C69.6828 23.7984 69.4395 23.3848 69.1179 23.0358C68.7544 22.6413 68.2552 22.364 67.2568 21.8093L42.5901 8.10562C41.6448 7.58043 41.1721 7.31783 40.6715 7.21488C40.2285 7.12377 39.7715 7.12377 39.3285 7.21488C38.8279 7.31783 38.3553 7.58043 37.4099 8.10563L12.7432 21.8093C11.7448 22.364 11.2456 22.6413 10.8821 23.0358C10.5605 23.3848 10.3172 23.7984 10.1683 24.249C10 24.7583 10 25.3294 10 26.4715V53.5285C10 54.6707 10 55.2417 10.1683 55.7511C10.3172 56.2017 10.5605 56.6153 10.8821 56.9642C11.2456 57.3587 11.7448 57.636 12.7432 58.1907L37.4099 71.8944C38.3553 72.4196 38.8279 72.6822 39.3285 72.7851C39.7715 72.8763 40.2285 72.8763 40.6715 72.7851C41.1721 72.6822 41.6448 72.4196 42.5901 71.8944L67.2568 58.1907C68.2552 57.636 68.7544 57.3587 69.1179 56.9642C69.4395 56.6153 69.6828 56.2017 69.8317 55.7511C70 55.2417 70 54.6707 70 53.5285Z" stroke="currentColor" stroke-width="1.6" stroke-linecap="round" stroke-linejoin="round"/>
<path d="M55 31.6667L25 15" stroke="currentColor" stroke-width="2" stroke-linecap="round" stroke-linejoin="round"/>
</svg>
