<svg width="25" height="24" viewBox="0 0 25 24" fill="none" xmlns="http://www.w3.org/2000/svg">
<path d="M13.2174 3.4533L15.404 7.88327C15.4721 8.02112 15.5061 8.09004 15.5558 8.14356C15.5999 8.19094 15.6527 8.22933 15.7113 8.25661C15.7775 8.28741 15.8536 8.29852 16.0057 8.32076L20.897 9.03569C21.412 9.11098 21.6696 9.14862 21.7888 9.27442C21.8925 9.38388 21.9412 9.53428 21.9215 9.68376C21.8988 9.85556 21.7124 10.0372 21.3395 10.4004L17.8014 13.8464C17.6911 13.9538 17.636 14.0075 17.6004 14.0714C17.5689 14.128 17.5487 14.1902 17.5409 14.2545C17.5321 14.3271 17.5451 14.403 17.5711 14.5547L18.4059 19.4221C18.494 19.9355 18.538 20.1922 18.4553 20.3445C18.3833 20.477 18.2553 20.57 18.107 20.5975C17.9366 20.6291 17.7061 20.5078 17.2451 20.2654L12.8724 17.9658C12.7361 17.8942 12.668 17.8583 12.5962 17.8443C12.5327 17.8318 12.4673 17.8318 12.4038 17.8443C12.332 17.8583 12.2639 17.8942 12.1276 17.9658L7.75491 20.2654C7.2939 20.5078 7.0634 20.6291 6.89296 20.5975C6.74467 20.57 6.61671 20.477 6.54472 20.3445C6.46199 20.1922 6.50601 19.9355 6.59406 19.4221L7.42887 14.5547C7.4549 14.403 7.46791 14.3271 7.4591 14.2545C7.45131 14.1902 7.4311 14.128 7.39959 14.0714C7.36401 14.0075 7.30886 13.9538 7.19857 13.8464L3.66054 10.4004C3.28765 10.0372 3.1012 9.85556 3.07851 9.68376C3.05877 9.53428 3.10754 9.38388 3.21124 9.27442C3.33042 9.14862 3.58796 9.11098 4.10303 9.03569L8.9943 8.32076C9.14641 8.29852 9.22247 8.28741 9.2887 8.25661C9.34735 8.22933 9.40015 8.19094 9.44417 8.14356C9.49389 8.09004 9.52791 8.02112 9.59596 7.88327L11.7826 3.4533C12.0131 2.98636 12.1284 2.75289 12.2848 2.6783C12.4209 2.6134 12.5791 2.6134 12.7152 2.6783C12.8716 2.75289 12.9869 2.98636 13.2174 3.4533Z" fill="currentColor" stroke="currentColor" stroke-width="2" stroke-linecap="round" stroke-linejoin="round"/>
</svg>
