<svg width="25" height="20" viewBox="0 0 25 20" fill="none" xmlns="http://www.w3.org/2000/svg">
<path d="M0.998573 9.11688C1.05406 9.08913 1.10957 9.06276 1.16366 9.03779C2.10411 8.60211 3.05704 8.1942 4.00858 7.78627C4.0599 7.78627 4.14588 7.72661 4.19443 7.70718C4.26794 7.67527 4.34147 7.64475 4.41499 7.61283C4.55647 7.55178 4.69796 7.49212 4.83805 7.43107C5.12102 7.31036 5.40258 7.18964 5.68555 7.06893L7.37917 6.34327C8.50826 5.86042 9.63876 5.37619 10.7679 4.89334C11.8969 4.41049 13.0274 3.92625 14.1565 3.4434C15.2856 2.96056 16.416 2.47633 17.5451 1.99348C18.6742 1.51063 19.8047 1.02639 20.9338 0.543543C21.1849 0.435318 21.4567 0.274364 21.7258 0.22719C21.9519 0.186952 22.1725 0.109256 22.3999 0.0662438C22.8313 -0.0156185 23.3071 -0.0489153 23.7205 0.130072C23.8633 0.192509 23.9951 0.27992 24.1047 0.389533C24.629 0.908456 24.5555 1.76037 24.4445 2.49019C23.6719 7.57675 22.8993 12.6647 22.1253 17.7513C22.0199 18.4492 21.8756 19.2151 21.325 19.6563C20.8589 20.0295 20.1959 20.0712 19.6202 19.913C19.0446 19.7534 18.5369 19.419 18.0389 19.0902C15.9736 17.7221 13.9068 16.3541 11.8415 14.986C11.3504 14.6613 10.8039 14.2367 10.8095 13.6471C10.8122 13.2919 11.0245 12.9755 11.2408 12.6938C13.0357 10.3518 15.6254 8.74225 17.5521 6.50839C17.8239 6.19342 18.0376 5.62455 17.6644 5.44279C17.4425 5.33456 17.1873 5.48164 16.9848 5.62177C14.4381 7.39083 11.8928 9.16128 9.34609 10.9303C8.51522 11.5075 7.64413 12.1014 6.64266 12.2429C5.7466 12.3706 4.845 12.1208 3.97807 11.8655C3.25123 11.6518 2.52576 11.4326 1.80309 11.2064C1.41887 11.0871 1.02216 10.9581 0.725321 10.6875C0.428485 10.417 0.257896 9.96186 0.43683 9.60111C0.549184 9.37495 0.766961 9.23204 0.99583 9.11549L0.998573 9.11688Z" fill="currentColor"/>
</svg>
