<svg width="17" height="17" viewBox="0 0 17 17" fill="none" xmlns="http://www.w3.org/2000/svg">
<g clip-path="url(#clip0_4038_4718)">
<path d="M5.16671 15.1667V7.83337M1.83337 9.16671V13.8334C1.83337 14.5698 2.43033 15.1667 3.16671 15.1667H12.1175C13.1047 15.1667 13.9442 14.4465 14.0943 13.4708L14.8122 8.80416C14.9986 7.59264 14.0613 6.50004 12.8355 6.50004H10.5C10.1319 6.50004 9.83337 6.20156 9.83337 5.83337V3.47727C9.83337 2.56937 9.09738 1.83337 8.18948 1.83337C7.97293 1.83337 7.77669 1.9609 7.68875 2.15879L5.34267 7.43747C5.23567 7.67822 4.99692 7.83337 4.73346 7.83337H3.16671C2.43033 7.83337 1.83337 8.43033 1.83337 9.16671Z" stroke="currentColor" stroke-width="2" stroke-linecap="round" stroke-linejoin="round"/>
</g>
<defs>
<clipPath id="clip0_4038_4718">
<rect width="16" height="16" fill="currentColor" transform="translate(0.5 0.5)"/>
</clipPath>
</defs>
</svg>
