<svg width="17" height="17" viewBox="0 0 17 17" fill="none" xmlns="http://www.w3.org/2000/svg">
<g clip-path="url(#clip0_4038_4719)">
<path d="M11.8333 1.83337V9.16671M15.1666 7.03337V3.96671C15.1666 3.21997 15.1666 2.8466 15.0213 2.56139C14.8935 2.3105 14.6895 2.10653 14.4386 1.9787C14.1534 1.83337 13.78 1.83337 13.0333 1.83337H5.91196C4.93764 1.83337 4.45048 1.83337 4.05701 2.01166C3.71022 2.1688 3.41549 2.42166 3.20745 2.74052C2.9714 3.1023 2.89732 3.5838 2.74917 4.54679L2.40045 6.81346C2.20505 8.08358 2.10735 8.71864 2.29582 9.21279C2.46125 9.6465 2.77239 10.0092 3.1759 10.2386C3.63564 10.5 4.27818 10.5 5.56324 10.5H6.09995C6.47332 10.5 6.66001 10.5 6.80261 10.5727C6.92806 10.6366 7.03004 10.7386 7.09396 10.864C7.16662 11.0067 7.16662 11.1933 7.16662 11.5667V13.5228C7.16662 14.4307 7.90262 15.1667 8.81051 15.1667C9.02706 15.1667 9.2233 15.0392 9.31125 14.8413L11.5518 9.80016C11.6537 9.57087 11.7046 9.45623 11.7852 9.37217C11.8563 9.29786 11.9438 9.24104 12.0406 9.20616C12.1501 9.16671 12.2756 9.16671 12.5265 9.16671H13.0333C13.78 9.16671 14.1534 9.16671 14.4386 9.02138C14.6895 8.89355 14.8935 8.68958 15.0213 8.43869C15.1666 8.15348 15.1666 7.78011 15.1666 7.03337Z" stroke="currentColor" stroke-width="2" stroke-linecap="round" stroke-linejoin="round"/>
</g>
<defs>
<clipPath id="clip0_4038_4719">
<rect width="16" height="16" fill="currentColor" transform="translate(0.5 0.5)"/>
</clipPath>
</defs>
</svg>
