<svg width="19" height="18" viewBox="0 0 19 18" fill="none" xmlns="http://www.w3.org/2000/svg">
<path d="M18.3333 8.75L16.3 6.425L16.5833 3.35L13.575 2.66667L12 0L9.16667 1.21667L6.33333 0L4.75833 2.65833L1.75 3.33333L2.03333 6.41667L0 8.75L2.03333 11.075L1.75 14.1583L4.75833 14.8417L6.33333 17.5L9.16667 16.275L12 17.4917L13.575 14.8333L16.5833 14.15L16.3 11.075L18.3333 8.75ZM6.98333 12.0917L5 10.0917C4.92275 10.0146 4.86146 9.923 4.81964 9.82219C4.77782 9.72138 4.7563 9.61331 4.7563 9.50417C4.7563 9.39503 4.77782 9.28696 4.81964 9.18615C4.86146 9.08533 4.92275 8.99376 5 8.91667L5.05833 8.85833C5.38333 8.53333 5.91667 8.53333 6.24167 8.85833L7.58333 10.2083L11.875 5.90833C12.2 5.58333 12.7333 5.58333 13.0583 5.90833L13.1167 5.96667C13.4417 6.29167 13.4417 6.81667 13.1167 7.14167L8.18333 12.0917C7.84167 12.4167 7.31667 12.4167 6.98333 12.0917Z" fill="currentColor"/>
</svg>
