<svg width="16" height="17" viewBox="0 0 16 17" fill="none" xmlns="http://www.w3.org/2000/svg">
<path d="M15.7589 10.4352C14.6904 14.721 10.3496 17.3292 6.06336 16.2605C1.77889 15.192 -0.829339 10.851 0.239588 6.56558C1.30758 2.27935 5.64835 -0.329071 9.93329 0.739387C14.2192 1.80785 16.8273 6.14936 15.7587 10.4353L15.7588 10.4352H15.7589Z" fill="currentColor"/>
<path fill-rule="evenodd" clip-rule="evenodd" d="M9.01232 9.40696C8.95575 9.41121 8.66349 9.42865 8.01155 9.42865C7.49302 9.42865 7.12486 9.41309 6.9957 9.40696C4.9918 9.31881 3.49607 8.96998 3.49607 8.55233C3.49607 8.13467 4.9918 7.78631 6.9957 7.69675V9.05955C7.12675 9.06897 7.50198 9.09113 8.02051 9.09113C8.64275 9.09113 8.95434 9.0652 9.01044 9.06002V7.69769C11.0101 7.78678 12.5025 8.13562 12.5025 8.55233C12.5025 8.96904 11.0106 9.31787 9.01044 9.40649L9.01232 9.40696ZM9.01232 7.55674V6.33725H11.803V4.4776H4.20505V6.33725H6.99523V7.55627C4.72735 7.66045 3.02185 8.10969 3.02185 8.64802C3.02185 9.18635 4.72735 9.63512 6.99523 9.73977V13.6476H9.01185V9.73835C11.2745 9.63418 12.9772 9.18541 12.9772 8.64755C12.9772 8.10969 11.276 7.66092 9.01185 7.55627L9.01232 7.55674Z" fill="#0A0A0A"/>
</svg>
