<svg width="164" height="32" viewBox="0 0 164 32" fill="none" xmlns="http://www.w3.org/2000/svg">
<rect width="32" height="32" rx="10" fill="#FFDD00"/>
<path d="M16 16V7H25L16 16Z" fill="#0A0A0A"/>
<path d="M16 7V16H7C7 11.03 11.03 7 16 7Z" fill="#0A0A0A"/>
<path d="M16 16V25H7L16 16Z" fill="#0A0A0A"/>
<path d="M16 25V16H25C25 20.97 20.97 25 16 25Z" fill="#0A0A0A"/>
<path d="M163.03 23.1918H150.085V8.80823H162.825V11.6849H153.516V14.4589H160.77V17.2329H153.516V20.3151H163.03V23.1918Z" fill="currentColor"/>
<path d="M131.33 23.1918H127.899V8.80823H131.145L137.043 15.137H137.104L142.981 8.80823H146.186V23.1918H142.734V13.4315H142.673L137.043 19.4726L131.392 13.4315H131.33V23.1918Z" fill="currentColor"/>
<path d="M123.189 23.3973C122.655 23.3973 122.223 23.2398 121.895 22.9247C121.566 22.5959 121.401 22.2055 121.401 21.7535C121.401 21.2877 121.566 20.8973 121.895 20.5822C122.223 20.2672 122.655 20.1096 123.189 20.1096C123.71 20.1096 124.134 20.2672 124.463 20.5822C124.792 20.8973 124.956 21.2877 124.956 21.7535C124.956 22.2055 124.792 22.5959 124.463 22.9247C124.134 23.2398 123.71 23.3973 123.189 23.3973Z" fill="currentColor"/>
<path d="M105.427 23.1918H101.81L108.488 8.80823H112.66L119.338 23.1918H115.598L114.18 19.9863H106.865L105.427 23.1918ZM110.523 11.8699L108.077 17.274H113.009L110.584 11.8699H110.523Z" fill="currentColor"/>
<path d="M101.29 23.1918H89.6395V8.80823H93.071V20.2123H101.29V23.1918Z" fill="currentColor"/>
<path d="M87.3112 23.1918H75.6605V8.80823H79.092V20.2123H87.3112V23.1918Z" fill="currentColor"/>
<path d="M72.58 23.1918H59.6348V8.80823H72.3745V11.6849H63.0663V14.4589H70.3197V17.2329H63.0663V20.3151H72.58V23.1918Z" fill="currentColor"/>
<path d="M50.5959 23.5C49.3904 23.5 48.3219 23.3562 47.3904 23.0685C46.4589 22.7671 45.7192 22.4384 45.1712 22.0822C44.6233 21.7123 44.2329 21.4041 44 21.1575L45.911 18.9795C46.089 19.1575 46.3836 19.3836 46.7945 19.6575C47.2192 19.9178 47.7466 20.1507 48.3767 20.3562C49.0205 20.5616 49.7123 20.6644 50.4521 20.6644C51.3425 20.6644 52.0342 20.5205 52.5274 20.2329C53.0205 19.9315 53.2671 19.5479 53.2671 19.0822C53.2671 18.7534 53.1301 18.4795 52.8562 18.2603C52.5822 18.0274 52.2329 17.8425 51.8082 17.7055C51.3836 17.5548 50.8014 17.3836 50.0616 17.1918C48.9384 16.9041 48.0068 16.6164 47.2671 16.3288C46.5411 16.0274 45.911 15.589 45.3767 15.0137C44.8562 14.4384 44.5959 13.6849 44.5959 12.7534C44.5959 11.9315 44.8356 11.1986 45.3151 10.5548C45.7945 9.91096 46.4795 9.41096 47.3699 9.05479C48.2603 8.68493 49.3151 8.5 50.5342 8.5C51.9315 8.5 53.1507 8.71918 54.1918 9.15753C55.2329 9.58219 56.0137 10.0205 56.5342 10.4726L54.6027 12.6918C54.4658 12.5548 54.2123 12.3767 53.8425 12.1575C53.4863 11.9384 53.0342 11.7466 52.4863 11.5822C51.9384 11.4041 51.3562 11.3151 50.7397 11.3151C49.9589 11.3151 49.3356 11.4521 48.8699 11.726C48.4178 12 48.1918 12.3356 48.1918 12.7329C48.1918 13.1712 48.4384 13.5068 48.9315 13.7397C49.4247 13.9726 50.2192 14.2329 51.3151 14.5205C52.4658 14.8219 53.411 15.1233 54.1507 15.4247C54.8904 15.7123 55.5274 16.1507 56.0616 16.7397C56.5959 17.3288 56.863 18.0959 56.863 19.0411C56.863 19.9041 56.6096 20.6781 56.1027 21.363C55.6096 22.0342 54.8904 22.5616 53.9452 22.9452C53 23.3151 51.8836 23.5 50.5959 23.5Z" fill="currentColor"/>
</svg>
